<?xml version="1.0" encoding="utf-8"?>
<!-- Generator: Adobe Illustrator 21.1.0, SVG Export Plug-In . SVG Version: 6.00 Build 0)  -->
<svg version="1.1" id="Ebene_1" xmlns="http://www.w3.org/2000/svg" xmlns:xlink="http://www.w3.org/1999/xlink" x="0px" y="0px"
	 viewBox="0 0 100 100" style="enable-background:new 0 0 100 100;" xml:space="preserve">
<style type="text/css">
	.st0{opacity:0.5;}
</style>
<path d="M69,61.9c-4,6.3-11,10.6-19,10.6c-12.4,0-22.4-10-22.4-22.4c0-11.4,8.5-20.8,19.5-22.2L46.8,0.2
	C29.4,1.3,13.8,11.3,5.7,26.8c-6.2,11.8-7.4,25.4-3.4,38.1c4,12.7,12.7,23.2,24.5,29.3C34,98,42,100,50,100h0
	c18,0,34.4-9.6,43.3-25.1L69,61.9z"/>
<path class="st0" d="M73.2,5.7C66.6,2.3,59.4,0.4,52,0.1l0.3,27.6C63.6,28.9,72.4,38.4,72.4,50c0,2.5-0.4,4.9-1.2,7.2l24.4,13.1
	C106.4,46.2,96.7,18,73.2,5.7z"/>
</svg>
