<?xml version="1.0" encoding="utf-8"?>
<!-- Generator: Adobe Illustrator 16.2.1, SVG Export Plug-In . SVG Version: 6.00 Build 0)  -->
<!DOCTYPE svg PUBLIC "-//W3C//DTD SVG 1.1 Basic//EN" "http://www.w3.org/Graphics/SVG/1.1/DTD/svg11-basic.dtd">
<svg version="1.1" baseProfile="basic" id="Ebene_1"
	 xmlns="http://www.w3.org/2000/svg" xmlns:xlink="http://www.w3.org/1999/xlink" x="0px" y="0px" width="100px" height="100px"
	 viewBox="0 0 100 100" xml:space="preserve">
<path d="M70.475,12.317c-5.817-3.043-12.09-4.682-18.648-4.873l-0.053,29.288c6.397,0.638,11.394,6.037,11.394,12.603
	c0,1.725-0.348,3.368-0.972,4.866L89.62,68.544C99.29,47.639,90.948,23.025,70.475,12.317z"/>
<path d="M60.71,56.809c-2.305,3.144-6.014,5.192-10.21,5.192c-6.996,0-12.667-5.671-12.667-12.667c0-6.39,4.603-11.64,10.753-12.507
	l0.07-29.36c-15.309,0.616-29.198,9.417-36.337,23.064C6.984,40.73,5.94,52.397,9.381,63.382s10.953,19.972,21.154,25.306
	c6.151,3.218,13.047,4.919,19.942,4.92h0.004c15.803,0,30.243-8.561,37.809-22.374L60.71,56.809z"/>
</svg>
