<?xml version="1.0" encoding="utf-8"?>
<!-- Generator: Adobe Illustrator 16.2.1, SVG Export Plug-In . SVG Version: 6.00 Build 0)  -->
<!DOCTYPE svg PUBLIC "-//W3C//DTD SVG 1.1 Basic//EN" "http://www.w3.org/Graphics/SVG/1.1/DTD/svg11-basic.dtd">
<svg version="1.1" baseProfile="basic" id="Ebene_1"
	 xmlns="http://www.w3.org/2000/svg" xmlns:xlink="http://www.w3.org/1999/xlink" x="0px" y="0px" width="100px" height="100px"
	 viewBox="0 0 100 100" xml:space="preserve">
<path d="M50.751,48.738l0.075-41.294c6.559,0.191,12.831,1.83,18.648,4.873C89.948,23.025,98.29,47.639,88.62,68.544L50.751,48.738z
	"/>
<path d="M49.477,93.607c-6.895-0.001-13.791-1.702-19.942-4.92C19.333,83.354,11.821,74.366,8.381,63.382S5.984,40.73,11.319,30.531
	C18.458,16.883,32.348,8.082,47.657,7.466l0.092,42.482l0.072,0.258l0.268,0.442l0.196,0.184l39.004,20.4
	C79.724,85.047,65.283,93.607,49.48,93.607H49.477z"/>
</svg>
