<?xml version="1.0" encoding="utf-8"?>
<!-- Generator: Adobe Illustrator 21.1.0, SVG Export Plug-In . SVG Version: 6.00 Build 0)  -->
<svg version="1.1" id="Ebene_1" xmlns="http://www.w3.org/2000/svg" xmlns:xlink="http://www.w3.org/1999/xlink" x="0px" y="0px"
	 viewBox="0 0 100 100" style="enable-background:new 0 0 100 100;" xml:space="preserve">
<style type="text/css">
	.st0{opacity:0.5;}
</style>
<path class="st0" d="M52,28.4c6.7,0.8,11.6,4.1,14.9,9.2l25.5-13.4C87.7,16.4,81,10.1,72.9,5.8C66.4,2.5,59.5,0.6,52,0.2V28.4z"/>
<path d="M95.3,29L69.6,42.5c0.8,2.2,1.1,4.4,1.1,6.8c0,3.1-0.7,6-2,8.8l26.2,13.7C101.5,58.3,101.6,42.5,95.3,29z"/>
<path d="M29.8,42.6L4.7,29.2C-1.5,42.5-1.6,57.6,4.6,71l26-13c-1.3-2.7-1.9-5.7-1.9-8.7C28.7,47,29.1,44.7,29.8,42.6z"/>
<path d="M7.1,24.1L32,37.4c3.4-4.9,8.8-8.1,14.4-8.9V0.3C30.5,1.3,15.6,10.2,7.1,24.1z"/>
</svg>
