<?xml version="1.0" encoding="utf-8"?>
<!-- Generator: Adobe Illustrator 16.2.1, SVG Export Plug-In . SVG Version: 6.00 Build 0)  -->
<!DOCTYPE svg PUBLIC "-//W3C//DTD SVG 1.1 Basic//EN" "http://www.w3.org/Graphics/SVG/1.1/DTD/svg11-basic.dtd">
<svg version="1.1" baseProfile="basic" id="Ebene_1"
	 xmlns="http://www.w3.org/2000/svg" xmlns:xlink="http://www.w3.org/1999/xlink" x="0px" y="0px" width="100px" height="100px"
	 viewBox="0 0 100 100" xml:space="preserve">
<path d="M65.931,50.589C62.882,45.303,58,41.84,51,41.431V16.939c7,0.146,13.475,1.806,19.456,4.935
	c7.537,3.942,13.689,9.907,17.82,17.27L65.931,50.589z"/>
<path d="M66.916,67.427c1.135-2.439,1.709-5.028,1.709-7.704c0-2.534-0.521-5.002-1.553-7.344l22.386-11.466
	c6.031,12.013,6.156,26.303,0.337,38.436L66.916,67.427z"/>
<path d="M89.585,80.931"/>
<path d="M10.885,78.691C5.321,66.56,5.562,52.859,11.552,40.944l21.889,11.493c-1.013,2.324-1.526,4.773-1.526,7.286
	c0,2.664,0.555,5.225,1.651,7.619L10.885,78.691z"/>
<path d="M12.253,39.185C19.766,25.786,34,17.309,49,16.937v24.458c-6,0.265-11.922,3.761-15.054,9.244L12.253,39.185z"/>
</svg>
