<?xml version="1.0" encoding="UTF-8" standalone="no"?>
<!-- Created with Inkscape (http://www.inkscape.org/) -->

<svg
   xmlns:dc="http://purl.org/dc/elements/1.1/"
   xmlns:cc="http://creativecommons.org/ns#"
   xmlns:rdf="http://www.w3.org/1999/02/22-rdf-syntax-ns#"
   xmlns:svg="http://www.w3.org/2000/svg"
   xmlns="http://www.w3.org/2000/svg"
   xmlns:sodipodi="http://sodipodi.sourceforge.net/DTD/sodipodi-0.dtd"
   xmlns:inkscape="http://www.inkscape.org/namespaces/inkscape"
   id="svg3004"
   version="1.1"
   inkscape:version="0.48.2 r9819"
   width="68.8"
   height="30"
   xml:space="preserve"
   sodipodi:docname="abzv-logo.svg"><metadata
     id="metadata3010"><rdf:RDF><cc:Work
         rdf:about=""><dc:format>image/svg+xml</dc:format><dc:type
           rdf:resource="http://purl.org/dc/dcmitype/StillImage" /><dc:title></dc:title></cc:Work></rdf:RDF></metadata><defs
     id="defs3008"><clipPath
       clipPathUnits="userSpaceOnUse"
       id="clipPath3020"><path
         d="M 0.136719,187.137 57.1758,163.445 c 0,0 -8.4258,-91.3864 100.4692,-129.2966 108.117,-37.64449 202.882,57.5391 202.882,57.5391 l 19.602,0.0586 c 0,0 -101.067,-123.3399 -230.266,-84.00391 C -10.2344,56.4844 0.136719,187.137 0.136719,187.137 z"
         clip-rule="evenodd"
         id="path3022"
         inkscape:connector-curvature="0" /></clipPath><clipPath
       clipPathUnits="userSpaceOnUse"
       id="clipPath3026"><path
         d="m 0,187.137 380.129,0 L 380.129,0 0,0 0,187.137 z"
         clip-rule="evenodd"
         id="path3028"
         inkscape:connector-curvature="0" /></clipPath><clipPath
       clipPathUnits="userSpaceOnUse"
       id="clipPath3036"><path
         d="M 0,0 0,378 861,378 861,0 0,0 z"
         id="path3038"
         inkscape:connector-curvature="0" /></clipPath><clipPath
       clipPathUnits="userSpaceOnUse"
       id="clipPath3042"><path
         d="m 860.793,187.035 -52.121,20.492 c 0,0 -6.133,103.743 -103.008,131.278 -98.594,28.019 -180.266,-40.344 -180.266,-40.344 l -30.347,0.004 c 0,0 86.14,108.219 216.746,72.359 154.519,-42.429 148.996,-183.789 148.996,-183.789 z"
         clip-rule="evenodd"
         id="path3044"
         inkscape:connector-curvature="0" /></clipPath><clipPath
       clipPathUnits="userSpaceOnUse"
       id="clipPath3048"><path
         d="m 860.812,187.035 -365.761,0 0,191.07 365.761,0 0,-191.07 z"
         clip-rule="evenodd"
         id="path3050"
         inkscape:connector-curvature="0" /></clipPath><clipPath
       clipPathUnits="userSpaceOnUse"
       id="clipPath3058"><path
         d="m 0,0 860.82,0 0,378 L 0,378 0,0 z"
         id="path3060"
         inkscape:connector-curvature="0" /></clipPath></defs><sodipodi:namedview
     pagecolor="#ffffff"
     bordercolor="#666666"
     borderopacity="1"
     objecttolerance="10"
     gridtolerance="10"
     guidetolerance="10"
     inkscape:pageopacity="0"
     inkscape:pageshadow="2"
     inkscape:window-width="1293"
     inkscape:window-height="635"
     id="namedview3006"
     showgrid="false"
     showguides="true"
     inkscape:guide-bbox="true"
     fit-margin-top="0"
     fit-margin-left="0"
     fit-margin-right="0"
     fit-margin-bottom="0"
     inkscape:zoom="1"
     inkscape:cx="325.57238"
     inkscape:cy="254.64103"
     inkscape:window-x="0"
     inkscape:window-y="22"
     inkscape:window-maximized="0"
     inkscape:current-layer="g3014"><sodipodi:guide
       orientation="0,1"
       position="282.09372,154.94946"
       id="guide3070" /><sodipodi:guide
       orientation="0,1"
       position="297.05967,133.0166"
       id="guide3072" /></sodipodi:namedview><g
     id="g3012"
     inkscape:groupmode="layer"
     inkscape:label="ink_ext_XXXXXX"
     transform="matrix(1.25,0,0,-1.25,271.77238,-89.340811)"><g
       id="g3014"
       transform="scale(0.1,0.1)"><g
         id="g3016"
         inkscape:export-filename="/Users/gka/clients/datawrapper/1.0/www/static/img/abzv-logo.png"
         inkscape:export-xdpi="57.142857"
         inkscape:export-ydpi="57.142857"
         transform="matrix(0.63492063,0,0,0.63492063,-2174.1792,-954.72649)"><g
           id="g3018"
           clip-path="url(#clipPath3020)"><g
             id="g3024"
             clip-path="url(#clipPath3026)"><path
               d="m 0,0 380.129,0 0,187.137 L 0,187.137 0,0 z"
               style="fill:#2744a0;fill-opacity:1;fill-rule:nonzero;stroke:none"
               id="path3030"
               inkscape:connector-curvature="0" /></g></g></g><g
         id="g3032"
         inkscape:export-filename="/Users/gka/clients/datawrapper/1.0/www/static/img/abzv-logo.png"
         inkscape:export-xdpi="57.142857"
         inkscape:export-ydpi="57.142857"
         transform="matrix(0.63492063,0,0,0.63492063,-2174.1792,-954.72649)"><g
           id="g3034"
           clip-path="url(#clipPath3036)"><g
             id="g3040"
             clip-path="url(#clipPath3042)"><g
               id="g3046"
               clip-path="url(#clipPath3048)"><path
                 d="m 495.051,187.035 365.762,0 0,191.07 -365.762,0 0,-191.07 z"
                 style="fill:#2744a0;fill-opacity:1;fill-rule:nonzero;stroke:none"
                 id="path3052"
                 inkscape:connector-curvature="0" /></g></g></g></g><g
         id="g3054"
         transform="matrix(0.63492063,0,0,0.63492063,-2174.1792,-954.72649)"><g
           id="g3056"
           clip-path="url(#clipPath3058)"><path
             d="m 230.188,181.781 -13.325,43.571 c -3.258,10.757 -6.035,22.832 -8.543,33.066 l -0.5,0 c -2.515,-10.234 -5.281,-22.57 -8.047,-33.066 l -13.062,-43.571 43.477,0 z m -48.508,-24.41 -14.571,-50.125 -31.921,0 54.285,176.895 39.453,0 55.039,-176.895 -33.43,0 -15.32,50.125 -53.535,0"
             style="fill:#231f20;fill-opacity:1;fill-rule:nonzero;stroke:none"
             id="path3062"
             inkscape:connector-curvature="0" /><path
             d="m 338.254,130.605 c 4.012,-0.793 9.297,-0.793 16.324,-0.793 19.856,0 37.707,7.618 37.707,29.399 0,20.734 -17.344,29.133 -38.699,29.133 l -15.332,0 0,-57.739 z m 0,81.094 15.828,0 c 21.609,0 33.43,10.496 33.43,25.457 0,16.797 -12.074,24.41 -31.672,24.41 -9.043,0 -14.324,-0.523 -17.586,-1.312 l 0,-48.555 z m -30.664,69.813 c 9.805,2.101 27.644,3.937 45.23,3.937 22.618,0 36.946,-3.148 48.254,-11.285 10.559,-6.562 17.598,-18.109 17.598,-33.328 0,-16.277 -9.805,-30.973 -28.152,-38.059 l 0,-0.785 c 17.847,-4.726 34.175,-19.426 34.175,-43.566 0,-15.75 -6.531,-28.086 -16.082,-36.746 -12.058,-10.762 -31.914,-16.27 -63.078,-16.27 -17.09,0 -29.898,1.309 -37.945,2.363 l 0,173.739"
             style="fill:#231f20;fill-opacity:1;fill-rule:nonzero;stroke:none"
             id="path3064"
             inkscape:connector-curvature="0" /><path
             d="m 441.035,125.086 86.453,131.496 0,0.785 -78.914,0 0,26.774 119.121,0 0,-18.899 -85.437,-130.437 0,-0.793 86.695,0 0,-26.766 -127.918,0 0,17.84"
             style="fill:#231f20;fill-opacity:1;fill-rule:nonzero;stroke:none"
             id="path3066"
             inkscape:connector-curvature="0" /><path
             d="m 633.281,107.246 -54.785,176.895 33.684,0 23.113,-80.579 c 6.531,-22.304 12.312,-42.769 16.594,-64.296 l 0.496,0 c 4.519,20.996 10.808,42.515 17.344,64.035 l 24.628,80.84 32.918,0 -58.55,-176.895 -35.442,0"
             style="fill:#231f20;fill-opacity:1;fill-rule:nonzero;stroke:none"
             id="path3068"
             inkscape:connector-curvature="0" /></g></g></g></g></svg>