<?xml version="1.0" encoding="UTF-8" standalone="no"?>
<!-- Created with Inkscape (http://www.inkscape.org/) -->

<svg
   xmlns="http://www.w3.org/2000/svg"
   version="1.1"
   width="68.800003"
   height="30"
   id="svg3004"
   xml:space="preserve"><defs
     id="defs3008" /><g
     id="g3190"><path
       d="m 18.268867,15.572938 -1.05754,-3.458015 c -0.258571,-0.85373 -0.478968,-1.812064 -0.678016,-2.6242857 l -0.03968,0 C 16.294028,10.302859 16.074504,11.281907 15.85498,12.114923 l -1.036666,3.458015 3.450555,0 z m -3.849841,1.937302 -1.156429,3.978174 -2.533412,0 4.308333,-14.0392844 3.13119,0 4.368174,14.0392844 -2.653174,0 -1.215873,-3.978174 -4.248809,0"
       id="path3062"
       style="fill:#231f20;fill-opacity:1;fill-rule:nonzero;stroke:none" /><path
       d="m 26.845532,19.634525 c 0.318413,0.06294 0.737857,0.06294 1.295556,0.06294 1.575873,0 2.992618,-0.604604 2.992618,-2.333254 0,-1.645556 -1.376507,-2.312143 -3.071348,-2.312143 l -1.216826,0 0,4.58246 z m 0,-6.436031 1.256191,0 c 1.715,0 2.653174,-0.833016 2.653174,-2.020397 0,-1.3330946 -0.958254,-1.9373009 -2.51365,-1.9373009 -0.717699,0 -1.136826,0.041508 -1.395715,0.104127 l 0,3.8535709 z m -2.43365,-5.5407136 c 0.778174,-0.166746 2.193968,-0.3124603 3.589682,-0.3124603 1.795079,0 2.932222,0.2498413 3.829682,0.8956348 0.838016,0.5207936 1.396667,1.4372221 1.396667,2.6450791 0,1.291825 -0.778175,2.458174 -2.234286,3.020555 l 0,0.0623 c 1.416429,0.375079 2.712301,1.541746 2.712301,3.457618 0,1.25 -0.518333,2.229048 -1.276349,2.916349 -0.956984,0.854127 -2.532856,1.29127 -5.00619,1.29127 -1.356349,0 -2.372856,-0.103889 -3.011507,-0.18754 l 0,-13.7888076"
       id="path3064"
       style="fill:#231f20;fill-opacity:1;fill-rule:nonzero;stroke:none" /><path
       d="m 35.002754,20.072541 6.861348,-10.4361894 0,-0.062302 -6.263015,0 0,-2.1249204 9.454046,0 0,1.4999205 -6.780713,10.3521423 0,0.06294 6.880555,0 0,2.124286 -10.152221,0 0,-1.415873"
       id="path3066"
       style="fill:#231f20;fill-opacity:1;fill-rule:nonzero;stroke:none" /><path
       d="m 50.260371,21.488414 -4.348015,-14.0392844 2.673333,0 1.834364,6.3951584 c 0.518334,1.770158 0.977143,3.394364 1.316984,5.102856 l 0.03936,0 c 0.358651,-1.666349 0.857778,-3.374206 1.376508,-5.082142 l 1.954603,-6.4158724 2.61254,0 -4.646825,14.0392844 -2.812857,0"
       id="path3068"
       style="fill:#231f20;fill-opacity:1;fill-rule:nonzero;stroke:none" /></g><path
     d="m 0.01028,15.169736 4.515,1.875362 c 0,0 -0.6669625,7.23382 7.952763,10.234645 8.558137,2.979797 16.059387,-4.554577 16.059387,-4.554577 l 1.551612,-0.0052 c 0,0 -8.000087,9.763133 -18.227,6.649437 C -0.8106575,25.5111 0.01028,15.169135 0.01028,15.169135 z"
     id="schwung-unten"
     style="fill:#353a90" /><path
     d="m 68.297654,15.138518 -4.141035,-1.62382 c 0,0 -0.48727,-8.2207565 -8.18404,-10.4026691 C 48.139232,0.89175951 41.650346,6.3089467 41.650346,6.3089467 L 39.23926,6.3086323 c 0,0 6.843869,-8.575442 17.220586,-5.73383978 C 68.736459,3.9369304 68.297654,15.138518 68.297654,15.138518 z"
     id="schwung-oben"
     style="fill:#353a90" /></svg>