<?xml version="1.0" encoding="UTF-8" standalone="no"?>
<!-- Created with Inkscape (http://www.inkscape.org/) -->

<svg
   xmlns:dc="http://purl.org/dc/elements/1.1/"
   xmlns:cc="http://creativecommons.org/ns#"
   xmlns:rdf="http://www.w3.org/1999/02/22-rdf-syntax-ns#"
   xmlns:svg="http://www.w3.org/2000/svg"
   xmlns="http://www.w3.org/2000/svg"
   xmlns:sodipodi="http://sodipodi.sourceforge.net/DTD/sodipodi-0.dtd"
   xmlns:inkscape="http://www.inkscape.org/namespaces/inkscape"
   width="22"
   height="50"
   viewBox="0 0 22 49.999999"
   id="svg5010"
   version="1.1"
   inkscape:version="0.91 r13725"
   sodipodi:docname="nav-corner.svg">
  <defs
     id="defs5012" />
  <sodipodi:namedview
     id="base"
     pagecolor="#ffffff"
     bordercolor="#666666"
     borderopacity="1.0"
     inkscape:pageopacity="0.0"
     inkscape:pageshadow="2"
     inkscape:zoom="14.393066"
     inkscape:cx="22.696626"
     inkscape:cy="22.174007"
     inkscape:document-units="px"
     inkscape:current-layer="layer1"
     showgrid="false"
     fit-margin-top="0"
     fit-margin-left="0"
     fit-margin-right="0"
     fit-margin-bottom="0"
     inkscape:window-width="2529"
     inkscape:window-height="1111"
     inkscape:window-x="31"
     inkscape:window-y="129"
     inkscape:window-maximized="0"
     units="px" />
  <metadata
     id="metadata5015">
    <rdf:RDF>
      <cc:Work
         rdf:about="">
        <dc:format>image/svg+xml</dc:format>
        <dc:type
           rdf:resource="http://purl.org/dc/dcmitype/StillImage" />
        <dc:title></dc:title>
      </cc:Work>
    </rdf:RDF>
  </metadata>
  <g
     inkscape:label="Layer 1"
     inkscape:groupmode="layer"
     id="layer1"
     transform="translate(853.38768,324.12503)">
    <path
       inkscape:connector-curvature="0"
       style="opacity:1;fill:#f9f9f9;fill-rule:evenodd;stroke:none;stroke-width:0.43340939px;stroke-linecap:butt;stroke-linejoin:miter;stroke-opacity:1"
       d="m -785.4869,-323.03508 c 1.27151,0.27597 2.32934,1.15312 2.83594,2.35156 l 0.01,-0.002 8.67382,20.72266 c 0.31305,0.58107 0.47744,1.23059 0.47852,1.89062 -4.9e-4,0.68326 -0.17599,1.355 -0.50977,1.95118 l -8.58203,20.33593 c -0.044,0.11816 -0.0935,0.23418 -0.14844,0.34766 l -0.0742,0.17773 -0.01,-0.004 c -0.69798,1.29273 -2.04844,2.09881 -3.51757,2.0996 -0.14297,-0.001 -0.28575,-0.0106 -0.42774,-0.0273 l 0,0.0391 14.7754,0 0,-49.88281 -13.50391,0 z"
       id="path4183-6-6"
       sodipodi:nodetypes="ccccccccccccccccc" />
    <path
       style="opacity:1;fill:#f9f9f9;stroke:none"
       d="m -817.37108,-322.40012 z m 0,1e-5 c 0.54142,0.12026 1.05197,0.35156 1.49947,0.67926 l 0.0291,-0.0117 0.17028,0.16248 c 0.1338,0.11299 0.25999,0.23462 0.37785,0.36411 l 21.5701,20.67744 0,0.002 c 0.90745,0.76201 1.43123,1.88642 1.43093,3.07138 0,1.16856 -0.51396,2.27806 -1.40156,3.0381 l 0,0.006 -21.47418,20.56977 c -0.76142,0.90443 -1.88325,1.42665 -3.06551,1.42705 7.11202,0.0207 19.03889,0.0128 26.40709,0.0117 l 0,-49.9974 c -8.51458,-6.6e-4 -17.02936,9.4e-4 -25.54385,-9e-5"
       id="path4198"
       inkscape:connector-curvature="0"
       sodipodi:nodetypes="ccccccccccccccccc" />
    <path
       inkscape:connector-curvature="0"
       style="display:inline;opacity:1;fill:#f9f9f9;fill-rule:evenodd;stroke:none;stroke-width:0.43340939px;stroke-linecap:butt;stroke-linejoin:miter;stroke-opacity:1"
       d="m -851.84628,-324.12496 a 4.0092271,4.0092271 0 0 1 2.14947,1.26071 l 0.0529,-0.0156 15.11484,21.49477 a 4.0092271,4.0092271 0 0 1 0.0822,0.1155 l 0.10767,0.15466 0,0.0333 a 4.0092271,4.0092271 0 0 1 0.52661,1.97721 4.0092271,4.0092271 0 0 1 -0.96904,2.61344 l -14.56868,20.54338 a 4.0092271,4.0092271 0 0 1 -0.1292,0.18206 l -0.32692,0.46199 -0.0431,-0.0254 a 4.0092271,4.0092271 0 0 1 -2.84836,1.19221 4.0092271,4.0092271 0 0 1 -0.42871,-0.0314 l 0,0.0431 21.76101,0 0,-49.99984 -20.48072,0 z"
       id="path4183-6-2" />
  </g>
</svg>
